                    -----=====HD Desi Rockers Releases=====-----


Plot:

In World War II, the fall of Stalingrad will mean the collapse of the whole country. The Germans and Russians are fighting over every block, leaving only ruins behind. The Russian sniper Vassili Zaitsev stalks the Germans, taking them out one by one, thus hurting the morale of the German troops. The political officer Danilov leads him on, publishing his efforts to give his countrymen some hope. But Vassili eventually start to feel that he can not live up to the expectations on him. He and Danilov fall in love with the same girl, Tanya, a female soldier. From Germany comes the master sniper König to put an end to the extraordinary skilled Russian sniper.

Cast:

	Jude Law	          ... 	Vassili Zaitsev

	Ed Harris	          ... 	Major König

	Rachel Weisz	          ... 	Tania Chernova

	Joseph Fiennes	          ... 	Commisar Danilov

	Bob Hoskins	          ... 	Nikita Khrushchev

	Ron Perlman	          ... 	Koulikov

	Eva Mattes	          ... 	Mother Filipov

	Gabriel Thomson	          ... 	Sacha Filipov (as Gabriel Marshall-Thomson)

	Matthias Habich	          ... 	General Paulus

	Sophie Rois	          ... 	Ludmilla

	Ivan Shvedoff	          ... 	Volodya
 
	Mario Bandi	          ... 	Anton

	Hans Martin Stier	  ... 	Red Army General

	Clemens Schick	          ... 	German NCO (as Clemans Schick)

	Mikhail N. Matveev	  ... 	Grandfather (as Mikhail Matveev)

General
Complete name                    : Enemy at the Gates 2001 BRRip HIndi~3385VKSH
Format                           : Matroska
File size                        : 1.99 GiB
Duration                         : 2h 5mn
Overall bit rate                 : 2 264 Kbps
Encoded date                     : UTC 2010-08-19 06:00:22
Writing application              : mkvmerge v4.2.0 ('No Talking') built on Jul 28 2010 18:38:23
Writing library                  : libebml v1.0.0 + libmatroska v1.0.0


Video
ID                               : 1
Format                           : AVC
Format/Info                      : Advanced Video Codec
Format profile                   : High@L4.1
Format settings, CABAC           : Yes
Format settings, ReFrames        : 4 frames
Muxing mode                      : Container profile=Unknown@4.1
Codec ID                         : V_MPEG4/ISO/AVC
Duration                         : 2h 5mn
Bit rate                         : 1 957 Kbps
Width                            : 1 280 pixels
Height                           : 544 pixels
Display aspect ratio             : 2.35:1
Frame rate                       : 25.000 fps
Original frame rate              : 23.976 fps
Color space                      : YUV
Chroma subsampling               : 4:2:0
Bit depth                        : 8 bits
Scan type                        : Progressive
Bits/(Pixel*Frame)               : 0.112
Stream size                      : 1.75 GiB (88%)

Audio
ID                               : 2
Format                           : MPEG Audio
Format version                   : Version 1
Format profile                   : Layer 3
Codec ID                         : A_MPEG/L3
Codec ID/Hint                    : MP3
Duration                         : 1h 0mn
Bit rate mode                    : Constant
Bit rate                         : 224 Kbps
Channel(s)                       : 2 channels
Sampling rate                    : 44.1 KHz
Stream size                      : 96.5 MiB (5%)
Writing library                  : LAME3.96r
Encoding settings                : -m s -V 4 -q 2 -lowpass 20 -b 224
Language                         : Hindi
 
http://img28.imageshack.us/img28/730/enemyatthegates2001brri.jpg
 
http://img801.imageshack.us/img801/730/enemyatthegates2001brri.jpg
 
http://img228.imageshack.us/img228/730/enemyatthegates2001brri.jpg
 
http://img85.imageshack.us/img85/730/enemyatthegates2001brri.jpg
 
http://img15.imageshack.us/img15/730/enemyatthegates2001brri.jpg

